<svg width="10" height="10" xmlns="http://www.w3.org/2000/svg">
 <g>
  <title>background</title>
  <rect x="-1" y="-1" width="12" height="12" id="canvas_background" fill="none"/>
 </g>

 <g>
  <title>Layer 1</title>
  <path stroke="null" d="m9.70023,1.34567c0.1439,0.1434 0.1439,0.37844 0,0.52183l-2.8854,2.87262c-0.1439,0.14295 -0.1439,0.37844 0,0.5223l2.88402,2.87355c0.1439,0.1434 0.1439,0.37844 0,0.5223l-1.05053,1.04322c-0.14436,0.14295 -0.38068,0.14295 -0.52504,0l-2.8831,-2.87309c-0.1439,-0.1434 -0.38068,-0.1434 -0.52458,0l-2.8854,2.87125c-0.1439,0.1434 -0.38068,0.1434 -0.52458,0l-1.04915,-1.04459c-0.1439,-0.1434 -0.1439,-0.37844 0,-0.5223l2.88632,-2.87217c0.1439,-0.14295 0.1439,-0.37844 0,-0.5223l-2.88402,-2.874c-0.14436,-0.1434 -0.14436,-0.3789 0,-0.5223l1.05007,-1.04368c0.14482,-0.14295 0.38068,-0.14295 0.52504,0.00046l2.88265,2.87262c0.14436,0.14386 0.38068,0.14386 0.52458,0.00046l2.8854,-2.87125c0.14344,-0.14295 0.37976,-0.14295 0.52458,0l1.04915,1.04506z" id="svg_1" fill="#ffffff"/>
 </g>
</svg>
