<svg width="20" height="15" viewBox="0 0 20 15" xmlns="http://www.w3.org/2000/svg"><path d="M3.177 12.14A11.308 11.308 0 0 1 0 7.562C1.573 3.383 5.455.42 10 .42c1.438 0 2.81.296 4.063.834l.975-.975a.95.95 0 0 1 1.346.001.947.947 0 0 1 0 1.346L3.588 14.423a.95.95 0 0 1-1.347 0 .947.947 0 0 1 0-1.347l.936-.936zm8.516-8.516a4.287 4.287 0 0 0-5.63 5.63l1.56-1.56a2.378 2.378 0 0 1 2.51-2.51l1.56-1.56zM5.682 13.757c1.321.61 2.782.948 4.318.948 4.545 0 8.427-2.962 10-7.143a11.292 11.292 0 0 0-3.377-4.745L13.82 5.619a4.287 4.287 0 0 1-5.764 5.764l-2.374 2.374zM9.54 9.9a2.378 2.378 0 0 0 2.797-2.797L9.54 9.9z"/></svg>