<svg xmlns="http://www.w3.org/2000/svg" width="20" height="17" viewBox="0 0 20 17"><path d="M20 1.9C19.3 2.3 18.5 2.5 17.6 2.6 18.5 2.1 19.1 1.3 19.4 0.3 18.7 0.8 17.8 1.1 16.8 1.3 16.1 0.5 15 0 13.8 0 11.6 0 9.7 1.8 9.7 4.1 9.7 4.4 9.8 4.7 9.8 5 6.4 4.9 3.4 3.2 1.4 0.8 1 1.4 0.8 2.1 0.8 2.8 0.8 4.2 1.6 5.5 2.7 6.2 2 6.2 1.4 6 0.8 5.7L0.8 5.8C0.8 7.8 2.2 9.4 4.1 9.8 3.7 9.9 3.4 9.9 3 9.9 2.8 9.9 2.5 9.9 2.2 9.9 2.8 11.5 4.3 12.7 6.1 12.7 4.7 13.8 2.9 14.5 1 14.5 0.6 14.5 0.3 14.4 0 14.4 1.8 15.6 4 16.3 6.3 16.3 13.8 16.3 18 10 18 4.6 18 4.4 18 4.2 18 4 18.8 3.5 19.4 2.8 20 1.9L20 1.9Z"/></svg>
