<svg xmlns="http://www.w3.org/2000/svg" width="20" height="12" viewBox="0 0 20 12"><path d="M11 11.7C11.5 11.7 11.7 11.3 11.7 10.9 11.7 9.3 12.3 8.4 13.4 9.6 14.6 10.8 14.9 11.7 16.4 11.7L19.1 11.7C19.7 11.7 20 11.4 20 11.1 20 10.4 18.8 9.1 17.8 8.2 16.4 6.9 16.4 6.8 17.6 5.3 19.1 3.3 21 0.8 19.3 0.8L16 0.8C15.3 0.8 15.3 1.2 15 1.7 14.2 3.7 12.6 6.2 12 5.8 11.4 5.4 11.7 3.8 11.8 1.5 11.8 0.8 11.8 0.4 10.8 0.2 10.3 0.1 9.8 0 9.3 0 7.4 0 6.1 0.8 6.8 0.9 8.1 1.2 8 4 7.7 5.2 7.2 7.4 5.2 3.5 4.4 1.6 4.1 1.2 4.1 0.8 3.4 0.8L0.7 0.8C0.2 0.8 0 1 0 1.3 0 1.8 2.5 6.9 4.8 9.4 7.1 11.9 9.4 11.7 11 11.7L11 11.7Z"/></svg>
