<svg width="20" height="20" viewBox="0 0 20 20" version="1.1" xmlns="http://www.w3.org/2000/svg" xmlns:xlink="http://www.w3.org/1999/xlink">
<title>Vector</title>
<desc>Created using Figma</desc>
<g id="Canvas" transform="translate(226 -197)">
<g id="Vector">
<use xlink:href="#path0_fill" transform="translate(-226 197)" fill="#B0BEC5"/>
</g>
</g>
<defs>
<path id="path0_fill" fill-rule="evenodd" d="M 10 14.6422L 10.4653 14.8868L 14.8522 17.1931L 14.0144 12.3083L 13.9255 11.7901L 14.302 11.4231L 17.851 7.96367L 12.9464 7.25098L 12.4261 7.17538L 12.1934 6.70393L 10 2.25955L 7.80657 6.70393L 7.5739 7.17538L 7.05363 7.25098L 2.14896 7.96367L 5.69801 11.4231L 6.07448 11.7901L 5.98561 12.3083L 5.14779 17.1931L 9.53466 14.8868L 10 14.6422ZM 4.93481 18.4349L 3.81966 19.0211L 4.03264 17.7794L 5 12.1392L 0.90218 8.14483L 0 7.26543L 1.24678 7.08426L 6.90983 6.26137L 9.44242 1.12978L 10 0L 10.5576 1.12978L 13.0902 6.26137L 18.7532 7.08426L 20 7.26543L 19.0978 8.14483L 15 12.1392L 15.9674 17.7794L 16.1803 19.0211L 15.0652 18.4349L 10 15.7719L 4.93481 18.4349Z"/>
</defs>
</svg>
