<svg xmlns="http://www.w3.org/2000/svg" width="20" height="20" viewBox="0 0 20 20"><path d="M10 0C4.5 0 0 4.5 0 10 0 14.2 2.6 17.9 6.4 19.3 6.3 18.5 6.2 17.3 6.4 16.4 6.6 15.7 7.6 11.5 7.6 11.5 7.6 11.5 7.3 10.9 7.3 10 7.3 8.6 8.1 7.6 9.1 7.6 9.9 7.6 10.3 8.2 10.3 9 10.3 9.8 9.8 11.1 9.5 12.3 9.3 13.3 10 14.1 11 14.1 12.8 14.1 14.1 12.2 14.1 9.5 14.1 7.1 12.4 5.5 10 5.5 7.1 5.5 5.4 7.6 5.4 9.8 5.4 10.7 5.8 11.6 6.2 12.1 6.3 12.2 6.3 12.3 6.3 12.4 6.2 12.7 6 13.4 6 13.5 5.9 13.7 5.8 13.7 5.6 13.6 4.4 13.1 3.6 11.2 3.6 9.8 3.6 6.6 5.9 3.7 10.2 3.7 13.7 3.7 16.4 6.2 16.4 9.5 16.4 12.9 14.2 15.7 11.2 15.7 10.2 15.7 9.2 15.2 8.9 14.6L8.3 16.9C8.1 17.8 7.4 18.9 7 19.6 8 19.8 9 20 10 20 15.5 20 20 15.5 20 10 20 4.5 15.5 0 10 0L10 0Z"/></svg>
